<?xml version="1.0" encoding="utf-8"?>
<!-- Generator: Adobe Illustrator 16.0.0, SVG Export Plug-In . SVG Version: 6.00 Build 0)  -->
<!DOCTYPE svg PUBLIC "-//W3C//DTD SVG 1.1//EN" "http://www.w3.org/Graphics/SVG/1.1/DTD/svg11.dtd">
<svg version="1.1" id="Layer_1" xmlns="http://www.w3.org/2000/svg" xmlns:xlink="http://www.w3.org/1999/xlink" x="0px" y="0px"
	 width="150px" height="150px" viewBox="357 357 150 150" enable-background="new 357 357 150 150" xml:space="preserve">
<g>
	<g>
		<path fill="#010101" d="M437.368,469.416H422.31c-0.655,0-1.178-0.523-1.178-1.178v-35.025h-5.958
			c-0.654,0-1.178-0.525-1.178-1.179v-12.799c0-0.655,0.524-1.178,1.178-1.178h5.958v-7.104c0-7.922,4.288-16.368,16.367-16.368
			l11.163,0.033c0.654,0,1.178,0.524,1.178,1.179v12.406c0,0.654-0.523,1.178-1.178,1.178h-8.086c-1.342,0-1.997,0.786-1.997,2.292
			v6.351h10.278c0.328,0,0.655,0.131,0.884,0.393c0.23,0.262,0.328,0.589,0.295,0.917l-1.309,12.8
			c-0.065,0.588-0.557,1.046-1.18,1.046h-9.002v35.027C438.546,468.892,438.023,469.416,437.368,469.416z M423.522,467.059h12.668
			v-35.026c0-0.655,0.523-1.178,1.179-1.178h9.101l1.079-10.41h-10.146c-0.654,0-1.179-0.523-1.179-1.178v-7.529
			c0-3.438,2.357-4.682,4.387-4.682h6.907v-10.082l-9.984-0.033c-12.996,0-14.011,10.737-14.011,14.011v8.282
			c0,0.654-0.524,1.178-1.179,1.178h-5.958v10.41h5.958c0.655,0,1.179,0.524,1.179,1.179V467.059L423.522,467.059z"/>
		<path d="M437.368,470.695H422.31c-1.354,0-2.457-1.102-2.457-2.457v-33.747h-4.679c-1.354,0-2.457-1.103-2.457-2.458v-12.799
			c0-1.355,1.103-2.457,2.457-2.457h4.679v-5.825c0-4.661,1.403-8.913,3.95-11.973c3.089-3.711,7.826-5.673,13.696-5.673
			l11.167,0.033c1.351,0,2.452,1.102,2.452,2.458v12.406c0,1.355-1.102,2.458-2.456,2.458h-8.086c-0.433,0-0.719,0-0.719,1.012
			v5.072h9c0.713,0,1.386,0.302,1.848,0.83c0.459,0.524,0.674,1.194,0.604,1.886l-1.31,12.802c-0.14,1.256-1.192,2.196-2.451,2.196
			h-7.723v33.748C439.825,469.601,438.746,470.695,437.368,470.695z M424.801,465.781h10.111v-33.748
			c0-1.354,1.103-2.457,2.457-2.457h7.947l0.815-7.853h-8.729c-1.355,0-2.458-1.102-2.458-2.457v-7.529
			c0-4.117,2.846-5.96,5.666-5.96h5.628v-7.529l-8.709-0.029c-11.488,0-12.729,8.903-12.729,12.732v8.282
			c0,1.354-1.102,2.457-2.457,2.457h-4.679v7.853h4.679c1.355,0,2.458,1.102,2.458,2.457V465.781z"/>
	</g>
	<g>
		<path fill="#010101" d="M432,505.654c-40.624,0-73.653-33.029-73.653-73.653c0-40.624,33.029-73.653,73.653-73.653
			c40.623,0,73.653,33.029,73.653,73.653C505.654,472.624,472.623,505.654,432,505.654z M432,360.704
			c-39.314,0-71.296,31.982-71.296,71.296s31.982,71.296,71.296,71.296s71.296-31.981,71.296-71.296S471.314,360.704,432,360.704z"
			/>
		<path d="M432,506.932c-41.317,0-74.932-33.614-74.932-74.932s33.614-74.932,74.932-74.932s74.932,33.614,74.932,74.932
			S473.318,506.932,432,506.932z M432,361.983c-38.607,0-70.018,31.41-70.018,70.018c0,38.608,31.41,70.018,70.018,70.018
			s70.018-31.41,70.018-70.018C502.018,393.393,470.608,361.983,432,361.983z"/>
	</g>
</g>
</svg>
