<?xml version="1.0" encoding="utf-8"?>
<!-- Generator: Adobe Illustrator 16.0.0, SVG Export Plug-In . SVG Version: 6.00 Build 0)  -->
<!DOCTYPE svg PUBLIC "-//W3C//DTD SVG 1.1//EN" "http://www.w3.org/Graphics/SVG/1.1/DTD/svg11.dtd">
<svg version="1.1" id="Layer_1" xmlns="http://www.w3.org/2000/svg" xmlns:xlink="http://www.w3.org/1999/xlink" x="0px" y="0px"
	 width="150px" height="150px" viewBox="357 357 150 150" enable-background="new 357 357 150 150" xml:space="preserve">
<g>
	<g>
		<path fill="#010101" d="M432,505.967c-40.796,0-73.966-33.17-73.966-73.966c0-40.796,33.169-73.966,73.966-73.966
			c40.796,0,73.966,33.169,73.966,73.966C505.966,472.797,472.796,505.967,432,505.967z M432,360.401
			c-39.481,0-71.599,32.118-71.599,71.6s32.117,71.6,71.599,71.6s71.6-32.118,71.6-71.6S471.482,360.401,432,360.401z"/>
		<path d="M432,507.251c-41.493,0-75.25-33.758-75.25-75.25c0-41.493,33.757-75.25,75.25-75.25c41.492,0,75.25,33.757,75.25,75.25
			C507.25,473.493,473.492,507.251,432,507.251z M432,361.686c-38.772,0-70.315,31.543-70.315,70.315
			c0,38.771,31.543,70.315,70.315,70.315c38.771,0,70.315-31.544,70.315-70.315C502.316,393.229,470.772,361.686,432,361.686z"/>
	</g>
	<g>
		<path fill="#010101" d="M432,451.857c-11.013,0-19.955-8.975-19.955-19.956c0-10.98,8.975-19.954,19.955-19.954
			c11.013,0,19.954,8.974,19.954,19.954C451.954,442.883,443.013,451.857,432,451.857z M432,414.315
			c-9.698,0-17.587,7.89-17.587,17.588c0,9.698,7.89,17.586,17.587,17.586c9.698,0,17.587-7.889,17.587-17.586
			C449.587,422.204,441.698,414.315,432,414.315z"/>
		<path d="M432,453.141c-11.711,0-21.239-9.527-21.239-21.239s9.528-21.239,21.239-21.239c11.71,0,21.238,9.527,21.238,21.239
			S443.71,453.141,432,453.141z M432,415.598c-8.99,0-16.304,7.314-16.304,16.303c0,8.99,7.314,16.303,16.304,16.303
			c8.989,0,16.303-7.313,16.303-16.303C448.303,422.912,440.99,415.598,432,415.598z"/>
	</g>
	<g>
		<path fill="#010101" d="M449.62,468.293h-35.24c-10.355,0-18.804-8.415-18.804-18.804v-35.207
			c0-10.356,8.416-18.804,18.804-18.804h35.207c10.356,0,18.805,8.416,18.805,18.804v35.207
			C468.392,459.878,459.976,468.293,449.62,468.293z M414.38,397.878c-9.04,0-16.405,7.364-16.405,16.404v35.207
			c0,9.04,7.364,16.404,16.405,16.404h35.207c9.04,0,16.404-7.364,16.404-16.404v-35.207c0-9.041-7.364-16.404-16.404-16.404H414.38
			L414.38,397.878z"/>
		<path d="M449.62,469.577h-35.24c-11.077,0-20.088-9.012-20.088-20.088v-35.207c0-11.077,9.011-20.088,20.088-20.088h35.207
			c11.076,0,20.088,9.012,20.088,20.088v35.207C469.675,460.565,460.679,469.577,449.62,469.577z M414.38,399.162
			c-8.337,0-15.12,6.783-15.12,15.12v35.207c0,8.338,6.783,15.12,15.12,15.12h35.207c8.338,0,15.12-6.782,15.12-15.12v-35.207
			c0-8.337-6.782-15.12-15.12-15.12H414.38L414.38,399.162z"/>
	</g>
	<g>
		<circle fill="#010101" cx="453.96" cy="409.285" r="2.827"/>
		<path d="M453.96,413.396c-2.268,0-4.112-1.845-4.112-4.111s1.845-4.111,4.112-4.111c2.267,0,4.11,1.845,4.11,4.111
			S456.227,413.396,453.96,413.396z M453.96,407.742c-0.852,0-1.543,0.692-1.543,1.543s0.691,1.542,1.543,1.542
			c0.851,0,1.543-0.692,1.543-1.542S454.811,407.742,453.96,407.742z"/>
	</g>
</g>
</svg>
