<?xml version="1.0" encoding="utf-8"?>
<!-- Generator: Adobe Illustrator 16.0.0, SVG Export Plug-In . SVG Version: 6.00 Build 0)  -->
<!DOCTYPE svg PUBLIC "-//W3C//DTD SVG 1.1//EN" "http://www.w3.org/Graphics/SVG/1.1/DTD/svg11.dtd">
<svg version="1.1" id="Layer_1" xmlns="http://www.w3.org/2000/svg" xmlns:xlink="http://www.w3.org/1999/xlink" x="0px" y="0px"
	 width="150px" height="150px" viewBox="357 357 150 150" enable-background="new 357 357 150 150" xml:space="preserve">
<g>
	<g>
		<path fill="#010101" d="M432,505.477c-40.527,0-73.477-32.949-73.477-73.477c0-40.527,32.951-73.477,73.477-73.477
			s73.477,32.95,73.477,73.477C505.477,472.527,472.527,505.477,432,505.477z M432,360.875c-39.22,0-71.126,31.906-71.126,71.126
			c0,39.221,31.906,71.125,71.126,71.125c39.221,0,71.126-31.904,71.126-71.125C503.125,392.781,471.22,360.875,432,360.875z"/>
		<path d="M432,506.754c-41.219,0-74.752-33.534-74.752-74.753s33.534-74.753,74.752-74.753s74.753,33.534,74.753,74.753
			S473.219,506.754,432,506.754z M432,362.151c-38.516,0-69.85,31.334-69.85,69.85c0,38.515,31.334,69.85,69.85,69.85
			c38.515,0,69.85-31.335,69.85-69.85S470.515,362.151,432,362.151z"/>
	</g>
	<g>
		<path fill="#010101" d="M466.78,464.983h-14.467c-0.653,0-1.176-0.521-1.176-1.175v-23.252c0-8.654-4.638-8.654-6.14-8.654
			c-4.05,0-5.78,3.201-6.335,4.539c-0.359,0.85-0.392,2.155-0.392,3.07v24.264c0,0.653-0.523,1.177-1.177,1.177H422.66
			c-0.326,0-0.621-0.132-0.849-0.36s-0.359-0.522-0.359-0.849c0-0.392,0.196-39.417,0-43.401c0-0.326,0.098-0.62,0.327-0.881
			c0.229-0.229,0.522-0.359,0.849-0.359h14.434c0.653,0,1.176,0.523,1.176,1.175v2.678c2.352-2.547,5.976-4.866,11.854-4.866
			c11.169,0,17.831,7.74,17.831,20.737v24.917C467.954,464.428,467.432,464.983,466.78,464.983z M453.488,462.6h12.083v-23.741
			c0-11.692-5.649-18.386-15.479-18.386c-6.856,0-10.024,3.559-12.05,6.629c-0.294,0.425-0.816,0.653-1.338,0.49
			c-0.49-0.163-0.85-0.62-0.85-1.143v-4.964h-12.05c0.13,6.989,0,34.876-0.033,41.115h12.083v-23.089
			c0-1.796,0.163-3.037,0.556-3.984c1.534-3.755,4.701-6.008,8.523-6.008c3.167,0,8.49,1.437,8.49,11.005V462.6H453.488z"/>
		<path d="M466.78,466.26h-14.467c-1.353,0-2.451-1.1-2.451-2.451v-23.252c0-7.378-3.408-7.378-4.864-7.378
			c-3.134,0-4.576,2.351-5.156,3.752c-0.296,0.696-0.296,2.115-0.296,2.581v24.264c0,1.352-1.099,2.451-2.451,2.451H422.66
			c-0.657,0-1.279-0.261-1.752-0.732c-0.472-0.473-0.732-1.095-0.732-1.751c0-0.033,0.001-0.336,0.004-0.867
			c0.111-24.691,0.111-40.172-0.003-42.471l-0.001-0.063c0-0.646,0.223-1.241,0.643-1.721l0.058-0.062
			c0.472-0.473,1.094-0.733,1.751-0.733h14.434c1.289,0,2.349,1,2.444,2.265c2.899-2.177,6.447-3.277,10.585-3.277
			c5.864,0,10.729,2.054,14.07,5.938c3.295,3.83,5.036,9.389,5.036,16.074v24.893c0.021,0.665-0.224,1.318-0.678,1.794
			C468.061,465.995,467.443,466.26,466.78,466.26z M454.698,461.324h9.597v-22.465c0-11.034-5.044-17.111-14.204-17.111
			c-6.159,0-9.009,3.062-10.985,6.056l-0.016,0.024c-0.473,0.684-1.237,1.092-2.045,1.092c-0.244,0-0.486-0.038-0.723-0.111
			l-0.022-0.007c-1.03-0.343-1.723-1.289-1.723-2.353v-3.688h-9.479c0.095,8.399-0.016,32.624-0.045,38.563h9.524v-21.813
			c0-2.003,0.201-3.382,0.652-4.473c1.739-4.253,5.366-6.796,9.703-6.796c2.937,0,9.766,1.197,9.766,12.281V461.324L454.698,461.324
			z M437.129,426.036v0.135c0.12-0.178,0.243-0.357,0.37-0.536L437.129,426.036z"/>
	</g>
	<g>
		<path fill="#010101" d="M407.443,415.542h-0.098c-5.323,0-9.176-3.658-9.176-8.687c0-5.029,3.919-8.687,9.34-8.687
			c5.355,0,9.144,3.56,9.274,8.654C416.782,411.884,412.864,415.542,407.443,415.542z M407.508,400.52
			c-4.115,0-6.989,2.612-6.989,6.335c0,3.723,2.809,6.335,6.792,6.335h0.098c4.114,0,6.988-2.613,6.988-6.335
			C414.333,403.034,411.622,400.52,407.508,400.52z"/>
		<path d="M407.443,416.818h-0.098c-2.901,0-5.551-0.997-7.462-2.807c-1.928-1.828-2.99-4.369-2.99-7.156
			c0-5.772,4.464-9.962,10.615-9.962c6.062,0,10.4,4.069,10.549,9.896l0,0.033C418.058,412.614,413.594,416.818,407.443,416.818z
			 M407.508,401.796c-3.417,0-5.713,2.033-5.713,5.06s2.217,5.06,5.517,5.06h0.098c3.413,0,5.708-2.028,5.712-5.049
			C413.064,403.738,410.914,401.796,407.508,401.796z"/>
	</g>
	<g>
		<path fill="#010101" d="M414.66,464.983h-14.467c-0.653,0-1.175-0.521-1.175-1.175V420.31c0-0.653,0.522-1.176,1.175-1.176h14.467
			c0.653,0,1.175,0.522,1.175,1.176v43.465C415.835,464.428,415.313,464.983,414.66,464.983z M401.368,462.6h12.083v-41.115h-12.083
			V462.6L401.368,462.6z"/>
		<path d="M414.66,466.26h-14.467c-1.352,0-2.451-1.1-2.451-2.451V420.31c0-1.352,1.1-2.452,2.451-2.452h14.467
			c1.352,0,2.451,1.1,2.451,2.452v43.465C417.111,465.145,416.011,466.26,414.66,466.26z M402.644,461.324h9.531v-38.563h-9.531
			V461.324z"/>
	</g>
</g>
</svg>
