<?xml version="1.0" encoding="utf-8"?>
<!-- Generator: Adobe Illustrator 16.0.0, SVG Export Plug-In . SVG Version: 6.00 Build 0)  -->
<!DOCTYPE svg PUBLIC "-//W3C//DTD SVG 1.1//EN" "http://www.w3.org/Graphics/SVG/1.1/DTD/svg11.dtd">
<svg version="1.1" id="Layer_1" xmlns="http://www.w3.org/2000/svg" xmlns:xlink="http://www.w3.org/1999/xlink" x="0px" y="0px"
	 width="150px" height="150px" viewBox="357 357 150 150" enable-background="new 357 357 150 150" xml:space="preserve">
<g>
	<g>
		<path fill="#010101" d="M431.999,505.785c-40.695,0-73.782-33.089-73.782-73.783c0-40.695,33.087-73.782,73.782-73.782
			c40.694,0,73.782,33.087,73.782,73.782C505.781,472.696,472.694,505.785,431.999,505.785z M431.999,360.581
			c-39.384,0-71.421,32.038-71.421,71.421c0,39.384,32.038,71.421,71.421,71.421s71.421-32.037,71.421-71.421
			C503.42,392.618,471.383,360.581,431.999,360.581z"/>
		<path d="M431.999,507.065c-41.39,0-75.063-33.673-75.063-75.063c0-41.39,33.673-75.063,75.063-75.063
			c41.39,0,75.063,33.673,75.063,75.063C507.062,473.392,473.389,507.065,431.999,507.065z M431.999,361.862
			c-38.675,0-70.14,31.465-70.14,70.14c0,38.676,31.465,70.141,70.14,70.141c38.676,0,70.141-31.465,70.141-70.141
			C502.138,393.326,470.675,361.862,431.999,361.862z"/>
	</g>
	<g>
		<path fill="#010101" d="M415.21,472.991c-0.165,0-0.328-0.033-0.492-0.064c-0.688-0.197-1.181-0.755-1.279-1.476l-0.032-0.165
			c-0.558-3.836-1.313-11.181,0.164-17.444c0.787-3.378,5.05-21.348,5.706-24.233c-0.427-0.984-1.378-3.673-1.378-7.28
			c0-7.214,4.362-12.887,9.904-12.887c4.426,0,7.279,3.115,7.279,7.968c0,2.82-1.083,6.361-2.263,10.1
			c-0.623,2.034-1.279,4.165-1.771,6.199c-0.426,1.836-0.065,3.606,0.983,4.951c1.147,1.442,2.952,2.263,4.984,2.263
			c7.477,0,13.15-9.805,13.15-22.824c0-9.936-6.755-16.134-17.61-16.134c-13.674,0-21.052,10.526-21.052,20.462
			c0,3.345,0.853,5.903,2.688,8.1c1.083,1.279,1.28,2.099,0.886,3.606c-0.131,0.427-0.296,1.181-0.492,1.87
			c-0.164,0.688-0.328,1.345-0.459,1.738c-0.229,0.852-0.721,1.541-1.442,1.902c-0.721,0.359-1.574,0.359-2.394,0.032
			c-6.263-2.559-10.002-9.412-10.002-18.364c0-14.461,12.527-29.414,33.48-29.414c18.658,0,29.775,13.772,29.775,27.054
			c0,18.626-10.757,32.136-25.545,32.136c-3.969,0-8.034-1.673-10.494-4.133c-0.819,3.215-2.197,8.626-2.59,10.035
			c-1.738,6.329-6.362,12.657-8.264,15.084l-0.098,0.132C416.291,472.762,415.767,472.991,415.21,472.991z M415.8,471.123
			L415.8,471.123C415.8,471.155,415.8,471.155,415.8,471.123z M414.751,470.86L414.751,470.86L414.751,470.86z M427.834,411.9
			c-4.23,0-7.542,4.624-7.542,10.493c0,3.902,1.312,6.592,1.312,6.624c0.131,0.262,0.164,0.525,0.098,0.788
			c0,0-4.951,20.954-5.804,24.626c-1.246,5.28-0.819,11.477-0.295,15.313c2.066-2.755,5.673-8.067,7.115-13.28
			c0.525-1.968,3.148-12.297,3.181-12.396c0.131-0.491,0.525-0.82,1.017-0.885c0.492-0.066,0.951,0.196,1.181,0.623
			c1.279,2.459,5.378,4.983,10.001,4.983c13.642,0,23.185-12.231,23.185-29.775c0-12.133-10.264-24.693-27.414-24.693
			c-21.446,0-31.12,15.806-31.12,27.021c0,7.935,3.181,14.002,8.526,16.166c0.197,0.066,0.361,0.1,0.459,0.066
			c0.098-0.033,0.164-0.198,0.229-0.394c0.098-0.394,0.262-1.051,0.426-1.706c0.197-0.721,0.361-1.477,0.491-1.935
			c0.198-0.721,0.198-0.721-0.393-1.443c-2.197-2.591-3.279-5.739-3.279-9.608c0-11.051,8.199-22.823,23.414-22.823
			c12.133,0,19.971,7.247,19.971,18.495c0,14.363-6.657,25.217-15.511,25.217c-2.755,0-5.247-1.147-6.821-3.181
			c-1.541-1.935-2.066-4.427-1.443-6.984c0.493-2.099,1.148-4.264,1.804-6.33c1.115-3.575,2.131-6.952,2.131-9.412
			C432.752,416.163,432.392,411.9,427.834,411.9z"/>
		<path d="M415.21,474.272c-0.292,0-0.542-0.05-0.744-0.09l-0.1-0.024c-1.174-0.335-2.01-1.287-2.191-2.49l-0.037-0.197
			c-0.703-4.835-1.242-11.871,0.185-17.923c0.312-1.337,1.154-4.904,2.13-9.035c1.396-5.905,2.965-12.549,3.483-14.795
			c-0.451-1.155-1.319-3.845-1.319-7.389c0-7.945,4.913-14.168,11.185-14.168c5.121,0,8.562,3.717,8.562,9.25
			c0,2.901-1.007,6.319-2.323,10.486l-0.031,0.104c-0.61,1.992-1.242,4.051-1.716,6.008c-0.334,1.439-0.069,2.815,0.748,3.862
			c0.893,1.122,2.344,1.771,3.975,1.771c3.143,0,6.079-2.091,8.27-5.889c2.32-4.024,3.599-9.583,3.599-15.654
			c0-9.161-6.256-14.853-16.328-14.853c-12.841,0-19.771,9.883-19.771,19.181c0,3.055,0.737,5.3,2.391,7.278
			c1.343,1.587,1.643,2.833,1.142,4.751l-0.016,0.055c-0.055,0.181-0.127,0.468-0.203,0.772c-0.082,0.323-0.172,0.688-0.273,1.044
			c-0.209,0.878-0.352,1.417-0.472,1.783c-0.338,1.221-1.082,2.171-2.097,2.678c-0.544,0.272-1.137,0.41-1.762,0.41
			c-0.562,0-1.127-0.112-1.68-0.333c-6.77-2.765-10.807-10.074-10.807-19.554c0-15.088,13.002-30.695,34.761-30.695
			c19.439,0,31.056,14.407,31.056,28.335c0,19.362-11.282,33.417-26.825,33.417c-3.43,0-7.053-1.188-9.756-3.122
			c-0.787,3.083-1.771,6.929-2.095,8.088c-1.79,6.519-6.521,13.017-8.48,15.519l-0.024,0.032
			C417.174,473.758,416.275,474.272,415.21,474.272z M422.778,428.502c0.244,0.519,0.302,1.075,0.167,1.613
			c-0.045,0.194-4.958,20.978-5.799,24.606c-0.915,3.873-0.883,8.189-0.629,11.512c1.846-2.776,3.964-6.484,4.967-10.11
			c0.328-1.227,1.481-5.747,2.324-9.047c0.665-2.604,0.811-3.177,0.855-3.337l0,0c0.264-0.99,1.063-1.688,2.084-1.825
			c0.105-0.014,0.213-0.021,0.32-0.021c0.897,0,1.724,0.5,2.158,1.306l0.009,0.017c1.074,2.065,4.768,4.295,8.865,4.295
			c12.896,0,21.903-11.717,21.903-28.495c0-11.508-9.775-23.411-26.133-23.411c-20.582,0-29.839,15.051-29.839,25.74
			c0,6.999,2.569,12.378,6.92,14.61l0.205-0.813c0.096-0.353,0.187-0.726,0.267-1.056c0.084-0.346,0.158-0.646,0.229-0.894
			c0.005-0.022,0.012-0.046,0.019-0.069c-0.05-0.063-0.108-0.134-0.165-0.202c-2.406-2.842-3.576-6.253-3.576-10.428
			c0-11.686,8.654-24.104,24.694-24.104c6.282,0,11.61,1.856,15.404,5.371c3.825,3.541,5.847,8.521,5.847,14.405
			c0,7.184-1.642,13.813-4.625,18.666c-3.104,5.051-7.424,7.832-12.166,7.832c-3.166,0-6.019-1.337-7.828-3.67
			c-1.801-2.266-2.398-5.134-1.68-8.079c0.518-2.212,1.214-4.485,1.827-6.414c0.922-2.956,2.071-6.641,2.071-9.024
			c0-1.604-0.473-4.294-3.637-4.294c-3.512,0-6.262,4.047-6.262,9.213c0,2.987,0.826,5.229,1.181,6.053
			C422.761,428.465,422.769,428.483,422.778,428.502z M427.06,444.696l0.176,0.176c-0.055-0.084-0.106-0.17-0.155-0.255
			C427.074,444.641,427.067,444.668,427.06,444.696z"/>
	</g>
</g>
</svg>
