<?xml version="1.0" encoding="utf-8"?>
<!-- Generator: Adobe Illustrator 16.0.0, SVG Export Plug-In . SVG Version: 6.00 Build 0)  -->
<!DOCTYPE svg PUBLIC "-//W3C//DTD SVG 1.1//EN" "http://www.w3.org/Graphics/SVG/1.1/DTD/svg11.dtd">
<svg version="1.1" id="Layer_1" xmlns="http://www.w3.org/2000/svg" xmlns:xlink="http://www.w3.org/1999/xlink" x="0px" y="0px"
	 width="150px" height="150px" viewBox="357 357 150 150" enable-background="new 357 357 150 150" xml:space="preserve">
<g>
	<g>
		<path fill="#010101" d="M432,505.358c-40.46,0-73.357-32.896-73.357-73.357c0-40.46,32.896-73.357,73.357-73.357
			s73.357,32.896,73.357,73.357C505.357,472.462,472.46,505.358,432,505.358z M432,360.991c-39.156,0-71.01,31.854-71.01,71.01
			S392.844,503.01,432,503.01c39.156,0,71.009-31.853,71.009-71.009S471.156,360.991,432,360.991z"/>
		<path d="M432,506.632c-41.151,0-74.63-33.479-74.63-74.631c0-41.152,33.479-74.63,74.63-74.63c41.152,0,74.63,33.479,74.63,74.63
			C506.63,473.152,473.152,506.632,432,506.632z M432,362.264c-38.452,0-69.736,31.284-69.736,69.736
			c0,38.452,31.284,69.735,69.736,69.735c38.453,0,69.736-31.283,69.736-69.736C501.736,393.548,470.452,362.264,432,362.264z"/>
	</g>
	<g>
		<path fill="#010101" d="M432.228,462.06c-0.815,0-20.083-0.195-26.18-0.815c-0.392-0.064-0.717-0.098-1.076-0.162
			c-2.021-0.261-5.412-0.686-8.15-3.717c-2.511-2.706-3.293-8.509-3.326-8.738c0-0.098-0.783-6.781-0.783-13.399v-6.195
			c0-6.619,0.783-13.302,0.783-13.367c0.033-0.261,0.815-6.064,3.357-8.803c2.935-3.26,6.195-3.619,7.956-3.782l0.457-0.033
			c10.694-0.815,26.799-0.848,26.963-0.848c0.195,0,16.301,0,26.962,0.848l0.49,0.065c1.76,0.163,5.02,0.521,7.954,3.782
			c2.51,2.706,3.293,8.509,3.325,8.77c0,0,0,0,0,0.033c0,0.065,0.783,6.749,0.783,13.368v6.194c0,6.619-0.783,13.302-0.783,13.367
			c-0.032,0.261-0.815,6.064-3.357,8.771c-2.935,3.26-6.195,3.587-7.922,3.782l-0.458,0.064
			C448.497,462.028,432.391,462.06,432.228,462.06z M432.26,404.549c-0.196,0-16.204,0-26.767,0.815l-0.456,0.032
			c-1.533,0.164-4.108,0.425-6.456,3.033c-1.696,1.826-2.543,6.032-2.739,7.499c0,0.033-0.75,6.618-0.75,13.074v6.195
			c0,6.487,0.75,13.041,0.75,13.105c0.196,1.436,1.076,5.642,2.739,7.467c2.152,2.38,4.891,2.739,6.716,2.967
			c0.424,0.065,0.815,0.098,1.109,0.163c5.901,0.587,25.658,0.782,25.854,0.815c0.163,0,16.17-0.033,26.734-0.848
			c0.099,0,0.262-0.033,0.457-0.065c1.532-0.163,4.108-0.424,6.423-3.031c1.694-1.826,2.575-6.032,2.771-7.5
			c0-0.032,0.749-6.618,0.749-13.073v-6.194c0-6.358-0.717-12.781-0.749-13.106c-0.196-1.467-1.077-5.673-2.739-7.466
			c-2.347-2.608-4.923-2.869-6.455-3.032l-0.489-0.065C448.432,404.549,432.391,404.549,432.26,404.549z M422.643,447.683
			c-0.196,0-0.391-0.065-0.587-0.164c-0.359-0.195-0.586-0.586-0.586-1.011v-28.755c0-0.424,0.228-0.815,0.586-1.011
			s0.815-0.196,1.174,0l23.964,14.378c0.357,0.229,0.586,0.587,0.586,1.011c0,0.424-0.229,0.783-0.586,1.01l-23.964,14.378
			C423.066,447.618,422.871,447.683,422.643,447.683z M423.817,419.84v24.616l20.507-12.292L423.817,419.84z"/>
		<path d="M432.228,463.334c-0.183,0-19.973-0.178-26.309-0.821l-0.08-0.011c-0.167-0.027-0.32-0.049-0.471-0.069
			c-0.188-0.026-0.382-0.054-0.591-0.091c-2.048-0.265-5.861-0.757-8.902-4.122c-2.601-2.805-3.488-8.322-3.64-9.4l-0.012-0.121
			c-0.004-0.039-0.011-0.104-0.021-0.193c-0.492-4.713-0.764-9.428-0.764-13.276v-6.195c0-5.297,0.483-10.624,0.771-13.328
			c0.005-0.042,0.008-0.075,0.011-0.102v-0.017l0.01-0.079c0.033-0.261,0.829-6.423,3.682-9.504c3.322-3.686,7.146-4.04,8.778-4.191
			l0.483-0.035c10.683-0.814,26.895-0.851,27.054-0.851c0.667,0,16.474,0.01,27.064,0.852l0.066,0.008l0.464,0.061
			c1.647,0.153,5.448,0.523,8.753,4.189c2.816,3.044,3.616,9.21,3.648,9.471l0.01,0.129c0.004,0.025,0.007,0.06,0.011,0.102
			c0.289,2.704,0.772,8.031,0.772,13.328v6.194c0,5.299-0.483,10.625-0.772,13.328c-0.004,0.042-0.007,0.076-0.011,0.102v0.018
			l-0.01,0.078c-0.032,0.262-0.829,6.425-3.685,9.475c-3.214,3.564-6.88,3.979-8.642,4.178l-0.057,0.006l-0.525,0.072
			C448.577,463.3,432.387,463.334,432.228,463.334z M406.601,457.637c4.753,0.462,18.402,0.68,23.557,0.763
			c1.424,0.022,1.918,0.031,2.125,0.04c0.693-0.002,16.336-0.051,26.614-0.844l0.061-0.005c0.045-0.005,0.099-0.016,0.158-0.025
			l0.227-0.035c1.435-0.151,3.605-0.383,5.58-2.607l0.019-0.021c1.35-1.453,2.224-5.18,2.439-6.78
			c0.002-0.021,0.005-0.047,0.009-0.078c0.171-1.615,0.732-7.318,0.732-12.848v-6.194c0-5.379-0.513-10.794-0.731-12.873
			l-0.009-0.083c-0.216-1.598-1.082-5.321-2.408-6.751l-0.013-0.014c-2.008-2.231-4.181-2.462-5.618-2.615l-0.059-0.007l-0.452-0.06
			c-10.364-0.768-25.914-0.776-26.571-0.776c-0.66,0-16.274,0.009-26.669,0.812l-0.445,0.032c-1.438,0.153-3.61,0.384-5.618,2.615
			l-0.014,0.015c-1.273,1.372-2.15,4.877-2.407,6.78c-0.002,0.022-0.004,0.047-0.008,0.078c-0.171,1.616-0.733,7.318-0.733,12.849
			v6.194c0,5.073,0.455,10.197,0.725,12.8c0.008,0.074,0.013,0.125,0.017,0.163c0.223,1.599,1.095,5.304,2.415,6.753
			c1.854,2.051,4.211,2.345,5.933,2.56l0.036,0.006c0.153,0.022,0.3,0.042,0.441,0.06
			C406.166,457.566,406.388,457.595,406.601,457.637z M422.643,448.957c-0.378,0-0.756-0.098-1.157-0.298l-0.04-0.021
			c-0.771-0.42-1.251-1.236-1.251-2.129v-28.755c0-0.893,0.479-1.708,1.251-2.129c0.724-0.395,1.668-0.395,2.393,0.001l0.046,0.026
			l23.991,14.396c0.737,0.468,1.177,1.248,1.177,2.085s-0.439,1.617-1.177,2.085l-0.028,0.018l-23.963,14.378
			C423.51,448.838,423.08,448.957,422.643,448.957z M425.09,422.091v20.116l16.758-10.044L425.09,422.091z"/>
	</g>
</g>
</svg>
